<svg width="31" height="24" viewBox="0 0 31 24" fill="none" xmlns="http://www.w3.org/2000/svg">
<g clip-path="url(#clip0_1_480)">
<path d="M15 5V18C17.9233 16.9952 19.9947 14.4667 20 11.5C19.9947 8.53333 17.9233 6 15 5Z" fill="white" fill-opacity="0.65"/>
<path d="M18.1633 0H12.3834C5.58984 0 0 4.94759 0 12.1047C0 18.6523 5.58984 24.0332 12.3834 23.9998H18.1585C24.8741 24.0332 31 18.6523 31 12.1047C31.0049 4.94759 24.8741 0 18.1633 0ZM12.4127 22.9618C6.2039 22.9618 1.1745 18.0475 1.1745 11.9809C1.1745 5.91425 6.20877 0.995232 12.4127 0.995232C18.6214 0.995232 23.6557 5.91425 23.6557 11.9809C23.6557 18.0475 18.6214 22.9618 12.4127 22.9618Z" fill="white" fill-opacity="0.65"/>
<path d="M5 11.5024C5.00532 14.4701 7.07668 16.9996 10 18V5C7.07668 6.00513 5.00532 8.53463 5 11.5024Z" fill="white" fill-opacity="0.65"/>
</g>
<defs>
<clipPath id="clip0_1_480">
<rect width="31" height="24" fill="white"/>
</clipPath>
</defs>
</svg>
