<svg width="83" height="14" viewBox="0 0 83 14" fill="none" xmlns="http://www.w3.org/2000/svg">
<g clip-path="url(#clip0_1_466)">
<path d="M8.19355 10C7.41935 10.6383 6.45161 10.9574 4.96774 10.9574H4.32258V3.04255H4.96774C6.51613 3.04255 7.41935 3.29787 8.19355 4C9.03226 4.70213 9.48387 5.85106 9.48387 7C9.54839 8.14894 9.03226 9.29787 8.19355 10ZM5.41935 1H2V13H5.48387C7.35484 13 8.64516 12.5532 9.80645 11.5957C11.1613 10.4468 12 8.7234 12 7C12 3.48936 9.29032 1 5.41935 1Z" fill="white" fill-opacity="0.65"/>
<path d="M13 13H15V1H13V13Z" fill="white" fill-opacity="0.65"/>
<path d="M22.2615 5.97449C20.7385 5.44388 20.2538 5.04592 20.2538 4.38265C20.2538 3.58673 21.0846 2.9898 22.1231 2.9898C22.8846 2.9898 23.5077 3.32143 24.2 3.98469L25.5846 2.39286C24.4769 1.46429 23.1615 1 21.7077 1C19.4231 1 17.6231 2.52551 17.6231 4.58163C17.6231 6.30612 18.4538 7.16837 20.8077 8.03061C21.7769 8.36225 22.3308 8.56122 22.5385 8.7602C23.0231 9.09184 23.3 9.55612 23.3 10.0204C23.3 11.0153 22.4692 11.8112 21.2923 11.8112C20.0462 11.8112 19.0769 11.2143 18.5231 10.1531L17 11.6122C18.1769 13.2704 19.5615 14 21.5 14C24.1308 14 26 12.3418 26 9.88775C26 7.89796 25.1692 7.03571 22.2615 5.97449Z" fill="white" fill-opacity="0.65"/>
<path d="M26 7.53299C26 11.1624 28.9452 14 32.7808 14C33.8767 14 34.7671 13.802 35.9315 13.2741V10.4365C34.9041 11.4264 34.0137 11.8223 32.9178 11.8223C30.3836 11.8223 28.6027 10.0406 28.6027 7.53299C28.6027 5.15736 30.4521 3.24365 32.8493 3.24365C34.0822 3.24365 34.9726 3.63959 36 4.62944V1.79188C34.9041 1.26396 34.0137 1 32.9178 1C29.0137 1.06599 26 3.96954 26 7.53299Z" fill="white" fill-opacity="0.65"/>
<path d="M54.9669 9.48705L51.6519 1H49L54.3039 14H55.6298L61 1H58.3481L54.9669 9.48705Z" fill="white" fill-opacity="0.65"/>
<path d="M62 13H69V10.9574H64.4904V7.70213H68.8654V5.7234H64.4904V3.04255H69V1H62V13Z" fill="white" fill-opacity="0.65"/>
<path d="M73.1304 6.55319H72.413V2.91489H73.1304C74.6304 2.91489 75.413 3.55319 75.413 4.70213C75.413 5.85106 74.6304 6.55319 73.1304 6.55319ZM77.8913 4.57447C77.8913 2.34043 76.3261 1 73.5217 1H70V13H72.413V8.14894H72.7391L76.0652 13H79L75.1522 7.95745C76.913 7.57447 77.8913 6.3617 77.8913 4.57447Z" fill="white" fill-opacity="0.65"/>
<path d="M79.2857 1.41176L79.2143 1.17647H79.2857C79.4286 1.17647 79.5 1.23529 79.5 1.29412C79.5 1.41176 79.4286 1.41176 79.2857 1.41176ZM79.7857 1.29412C79.7857 1.11765 79.6429 1 79.3571 1H79V2H79.2857V1.58824L79.6429 1.94118H80L79.6429 1.52941C79.6429 1.52941 79.7857 1.41176 79.7857 1.29412Z" fill="white" fill-opacity="0.65"/>
<path d="M79 2.85714C78.5714 2.85714 78.2143 2.5 78.2143 2C78.2143 1.5 78.5714 1.14286 79 1.14286C79.4286 1.14286 79.7857 1.5 79.7857 2C79.8571 2.5 79.4286 2.85714 79 2.85714ZM79 1C78.4286 1 78 1.42857 78 2C78 2.57143 78.4286 3 79 3C79.5714 3 80 2.57143 80 2C80 1.42857 79.5714 1 79 1Z" fill="white" fill-opacity="0.65"/>
<path d="M36 7.5C36 3.925 38.925 1 42.5 1C46.075 1 49 3.925 49 7.5C49 11.075 46.075 14 42.5 14C38.925 14 36 11.075 36 7.5Z" fill="white" fill-opacity="0.65"/>
</g>
<defs>
<clipPath id="clip0_1_466">
<rect width="83" height="14" fill="white"/>
</clipPath>
</defs>
</svg>
