<svg width="38" height="28" viewBox="0 0 38 28" fill="none" xmlns="http://www.w3.org/2000/svg">
<g clip-path="url(#clip0_1_485)">
<path d="M30 18H32.7097C32.7871 18 32.9677 17.9792 33.0452 17.9792C33.5613 17.8958 34 17.5208 34 17C34 16.5 33.5613 16.125 33.0452 16.0208C32.9677 16 32.8129 16 32.7097 16H30V18Z" fill="white" fill-opacity="0.65"/>
<path d="M32.8909 2C30.2183 2 28.0267 3.93034 28.0267 6.33731V10.8414H34.8953C35.0557 10.8414 35.2428 10.8414 35.3764 10.8653C36.9265 10.9368 38.0757 11.6517 38.0757 12.8909C38.0757 13.868 37.3007 14.7021 35.8575 14.8689V14.9166C37.4343 15.0119 38.637 15.7983 38.637 17.0137C38.637 18.3245 37.3007 19.1824 35.5367 19.1824H28V28H35.1359C37.8085 28 40 26.0697 40 23.6627V2H32.8909V2Z" fill="white" fill-opacity="0.65"/>
<path d="M34 13C34 12.4545 33.5211 12.0909 32.9577 12.0227C32.9014 12.0227 32.7606 12 32.6761 12H30V14H32.6761C32.7606 14 32.9296 14 32.9577 13.9773C33.5211 13.9091 34 13.5455 34 13V13Z" fill="white" fill-opacity="0.65"/>
<path d="M6.89087 2C4.21826 2 2.02673 3.93211 2.02673 6.34128V17.0514C3.38976 17.6477 4.80624 18.0294 6.22272 18.0294C7.90646 18.0294 8.81515 17.1229 8.81515 15.8826V10.8257H12.9844V15.8587C12.9844 17.8147 11.6214 19.4128 6.99777 19.4128C4.19154 19.4128 2 18.8642 2 18.8642V28H9.13586C11.8085 28 14 26.0679 14 23.6587V2H6.89087V2Z" fill="white" fill-opacity="0.65"/>
<path d="M20.8641 2C18.1915 2 16 3.92857 16 6.33333V12C17.2294 11.0714 19.3675 10.4762 22.8151 10.619C24.6592 10.6905 26.637 11.1429 26.637 11.1429V12.9762C25.6481 12.5238 24.4722 12.119 22.9488 12.0238C20.3296 11.8571 18.7528 13 18.7528 15C18.7528 17.0238 20.3296 18.1667 22.9488 17.9762C24.4722 17.881 25.6481 17.4524 26.637 17.0238V18.8571C26.637 18.8571 24.686 19.3095 22.8151 19.381C19.3675 19.5238 17.2294 18.9286 16 18V28H23.1359C25.8085 28 28 26.0714 28 23.6667V2H20.8641V2Z" fill="white" fill-opacity="0.65"/>
</g>
<defs>
<clipPath id="clip0_1_485">
<rect width="38" height="28" fill="white"/>
</clipPath>
</defs>
</svg>
