<svg width="94" height="40" viewBox="0 0 94 40" fill="none" xmlns="http://www.w3.org/2000/svg">
<path fill-rule="evenodd" clip-rule="evenodd" d="M15.047 37.7874C14.8683 39.1055 15.181 38.9298 16.2977 38.9737C18.2631 39.0177 21.4345 39.0177 21.7472 38.8858C22.1046 38.754 22.1939 38.3146 22.3279 37.7434L23.668 31.5481C23.936 30.4057 23.668 30.186 24.9187 30.0981H29.8322C30.8595 30.0981 31.0382 30.2299 31.2615 31.1966C31.4849 32.2072 32.0656 35.7223 32.4229 37.6116C32.6909 38.8419 32.5123 38.9737 33.897 38.9737H38.8998C40.3738 38.9737 40.0165 38.9298 39.7932 37.348L32.6909 1.75763C32.2889 -0.175679 32.4676 0.044015 30.7255 7.62823e-05H24.8293C23.1766 7.62823e-05 23.1319 -0.0438624 22.6853 1.97732L15.047 37.7874ZM27.3754 7.5136L30.0555 23.1997C30.2342 24.1664 30.2342 24.43 29.1175 24.3861H25.276C24.5613 24.3861 24.2933 24.3421 24.5613 23.1118L27.3754 7.5136Z" fill="black" fill-opacity="0.75"/>
<path fill-rule="evenodd" clip-rule="evenodd" d="M72.8149 17.8938C72.8149 17.4959 72.8149 17.319 73.2129 17.319H75.6896C76.0877 17.3632 76.0434 17.4517 76.0434 17.8938V33.766C76.0434 34.2966 75.8665 34.4292 75.5127 34.4292H73.3898C72.7706 34.4292 72.8149 34.2082 72.8149 33.766V28.1953C72.8149 27.4879 72.8591 27.2668 71.8861 27.2668H70.0286C69.2325 27.2668 69.2325 27.4879 69.2767 28.4163L69.3209 33.2355C69.3209 34.164 69.2325 34.385 68.4364 34.385C67.6403 34.385 67.1096 34.385 66.7558 34.385C65.9597 34.3408 66.0039 34.164 66.0039 33.3239V17.8938C66.0039 17.5401 66.0481 17.3632 66.6231 17.3632H68.6133C69.1883 17.3632 69.1883 17.4075 69.1883 17.9822C69.1883 19.8833 69.1883 21.8287 69.2325 23.6856C69.2325 24.0835 69.3652 24.3046 69.6305 24.3046H72.2399C72.5495 24.3046 72.6822 24.172 72.7706 23.774L72.8149 17.8938ZM78.2105 18.4243C78.2105 17.7611 78.2105 17.5401 78.6528 17.5401L82.3236 17.4959C84.4908 17.5401 85.9503 18.2475 87.2328 20.0602C88.6039 21.9613 88.6481 26.1173 88.2501 28.4163C87.9847 29.8311 87.5867 31.0249 86.879 32.0418C85.9503 33.3681 84.535 34.2966 82.4121 34.5177C81.0853 34.6945 79.4931 34.6945 78.6086 34.5177C78.2548 34.4292 78.3875 34.6503 78.2105 34.2524V18.4243ZM93.9553 36.6841C93.9553 32.8376 93.9996 23.0666 93.9996 17.5843C93.9996 11.9251 94.1765 12.0577 87.4982 12.0577C84.2696 12.0577 65.0752 11.8809 62.7754 12.1462C61.8024 12.2788 60.9178 13.2515 60.8736 14.2242L56.0971 38.4083C55.8317 39.9116 55.9644 39.9558 58.3969 39.9558C69.0114 39.9558 79.6258 40 90.196 40C92.9823 40 93.9553 39.6463 93.9553 36.6841Z" fill="#007AFF"/>
<path fill-rule="evenodd" clip-rule="evenodd" d="M43.3439 38.642C43.521 39.9465 43.6095 40.0365 45.3805 39.9915C47.2844 39.9465 49.1882 39.9465 51.092 39.9465C52.0218 39.9915 52.3317 39.3617 52.5088 38.462L59.7699 1.75536C60.0356 0.270899 60.3012 0.00099687 59.1501 0.00099687H53.7043C52.5088 0.00099687 52.6417 0.360866 52.376 1.71038L47.9928 30.41L43.6538 1.44047C43.4324 -0.0889706 43.4324 0.00099687 41.8385 0.00099687H37.1454C35.7286 0.00099687 35.9057 -0.0439868 36.2156 1.62041L43.3439 38.642Z" fill="black" fill-opacity="0.75"/>
<path fill-rule="evenodd" clip-rule="evenodd" d="M14.8535 29.9004C15.0768 27.7137 14.9428 25.4823 14.9875 23.3848C15.0322 16.0213 14.9428 8.34535 14.9428 0.981806C14.9428 0.0892551 14.9875 0.0446275 14.005 0H8.0204C7.35049 0.0446275 7.30583 0.312393 7.30583 0.981806V23.608C7.30583 24.1881 7.30583 25.4377 7.30583 26.6426C7.30583 28.2046 7.26117 30.5252 6.45728 31.8641C5.56406 33.3368 3.95627 33.5153 1.63391 33.1583C0.338744 32.9797 0.517387 33.2475 0.383404 34.5863C0.249422 35.9252 0.1601 37.621 0.0707787 38.0227C-0.152525 39.7631 0.115439 39.6292 1.4106 39.8078C4.62618 40.254 8.24371 40.0309 10.8787 37.978C13.469 35.9698 14.5855 32.8905 14.8535 29.9004Z" fill="black" fill-opacity="0.75"/>
<path fill-rule="evenodd" clip-rule="evenodd" d="M81 20.7103V31.0989C81 31.898 81.15 32.3419 82.6506 31.676C83.851 31.1432 84.4513 29.6782 84.7514 28.08C85.0515 26.5705 85.0515 24.9723 84.9014 24.04C84.7514 22.4861 84.0011 20.0444 81.8003 20C81.05 20.0444 81 20.0444 81 20.7103Z" fill="#007AFF"/>
</svg>
