<svg width="40" height="32" viewBox="0 0 40 32" fill="none" xmlns="http://www.w3.org/2000/svg">
<g clip-path="url(#clip0_1_457)">
<path d="M10.1627 27.8561V26.1295C10.1723 25.9843 10.1522 25.8386 10.1039 25.7021C10.0556 25.5657 9.98004 25.4416 9.88235 25.3381C9.78466 25.2346 9.66706 25.1542 9.53737 25.1021C9.40768 25.05 9.26889 25.0274 9.13024 25.036C8.94876 25.0235 8.7674 25.0623 8.60512 25.1484C8.44283 25.2344 8.30556 25.3646 8.20764 25.5252C8.11838 25.3694 7.99067 25.2417 7.83796 25.1556C7.68525 25.0695 7.51321 25.0282 7.33996 25.036C7.18895 25.028 7.03856 25.0615 6.9037 25.1331C6.76884 25.2048 6.6542 25.3122 6.57113 25.4446V25.105H6V27.8561H6.57662V26.3424C6.56436 26.2484 6.57207 26.1526 6.59922 26.062C6.62637 25.9714 6.67228 25.8883 6.73366 25.8184C6.79505 25.7486 6.8704 25.6938 6.95432 25.6581C7.03825 25.6223 7.12868 25.6064 7.21915 25.6115C7.59807 25.6115 7.79028 25.8705 7.79028 26.3367V27.8676H8.3669V26.3424C8.35514 26.2485 8.36321 26.1529 8.39054 26.0626C8.41787 25.9722 8.4638 25.8892 8.52508 25.8195C8.58636 25.7498 8.6615 25.695 8.7452 25.6591C8.82889 25.6232 8.91909 25.6069 9.00942 25.6115C9.39933 25.6115 9.58605 25.8705 9.58605 26.3367V27.8676L10.1627 27.8561ZM18.6939 25.105H17.7549V24.2705H17.1783V25.105H16.6565V25.6518H17.1892V26.918C17.1892 27.5568 17.4254 27.9367 18.1009 27.9367C18.3532 27.9376 18.6007 27.8638 18.8148 27.7237L18.65 27.2115C18.4969 27.3073 18.323 27.3607 18.1448 27.3669C17.8702 27.3669 17.7659 27.1827 17.7659 26.9065V25.6518H18.6994L18.6939 25.105ZM23.565 25.036C23.4258 25.0317 23.288 25.0668 23.1662 25.1377C23.0445 25.2086 22.9432 25.3127 22.8731 25.4388V25.105H22.3075V27.8561H22.8786V26.3137C22.8786 25.859 23.0653 25.6058 23.4278 25.6058C23.5499 25.604 23.6712 25.6275 23.7847 25.6748L23.9604 25.0993C23.83 25.0504 23.6926 25.0251 23.5541 25.0245L23.565 25.036ZM16.2007 25.3237C15.8775 25.1223 15.5058 25.0224 15.1299 25.036C14.4654 25.036 14.0315 25.3698 14.0315 25.9165C14.0315 26.3655 14.3501 26.6417 14.9377 26.7281L15.2122 26.7683C15.5253 26.8144 15.6735 26.9007 15.6735 27.0561C15.6735 27.2691 15.4649 27.3899 15.075 27.3899C14.7613 27.3994 14.4538 27.2981 14.2018 27.1022L13.9272 27.5683C14.2599 27.8118 14.6584 27.9369 15.064 27.9252C15.8218 27.9252 16.2611 27.5511 16.2611 27.0273C16.2611 26.5036 15.9152 26.2906 15.344 26.2043L15.0695 26.164C14.8223 26.1295 14.6246 26.0777 14.6246 25.8935C14.6246 25.7094 14.8114 25.5712 15.1244 25.5712C15.4137 25.5747 15.6973 25.656 15.9481 25.8072L16.2007 25.3237ZM31.4977 25.036C31.3585 25.0317 31.2207 25.0668 31.0989 25.1377C30.9771 25.2086 30.8759 25.3127 30.8058 25.4388V25.105H30.2401V27.8561H30.8113V26.3137C30.8113 25.859 30.998 25.6058 31.3604 25.6058C31.4826 25.604 31.6039 25.6275 31.7174 25.6748L31.8931 25.0993C31.7627 25.0504 31.6253 25.0251 31.4867 25.0245L31.4977 25.036ZM24.1389 26.4748C24.1321 26.6681 24.1639 26.8608 24.2323 27.0405C24.3006 27.2203 24.404 27.383 24.5358 27.5185C24.6676 27.6539 24.8249 27.759 24.9977 27.8271C25.1705 27.8951 25.355 27.9246 25.5393 27.9137C25.8822 27.932 26.2192 27.8149 26.4839 27.5856L26.2093 27.1022C26.0118 27.2599 25.7711 27.3467 25.5228 27.3496C25.3117 27.3317 25.1148 27.2312 24.9712 27.068C24.8276 26.9049 24.7478 26.691 24.7478 26.4691C24.7478 26.2471 24.8276 26.0333 24.9712 25.8701C25.1148 25.7069 25.3117 25.6064 25.5228 25.5885C25.7711 25.5914 26.0118 25.6782 26.2093 25.836L26.4839 25.3525C26.2192 25.1232 25.8822 25.0062 25.5393 25.0245C25.355 25.0135 25.1705 25.043 24.9977 25.1111C24.8249 25.1791 24.6676 25.2842 24.5358 25.4197C24.404 25.5551 24.3006 25.7179 24.2323 25.8976C24.1639 26.0773 24.1321 26.27 24.1389 26.4633V26.4748ZM29.4878 26.4748V25.105H28.9167V25.4388C28.8197 25.3081 28.6944 25.2033 28.5512 25.1333C28.4079 25.0632 28.2509 25.0299 28.0929 25.036C27.7288 25.036 27.3796 25.1876 27.1221 25.4574C26.8646 25.7272 26.72 26.0932 26.72 26.4748C26.72 26.8564 26.8646 27.2224 27.1221 27.4922C27.3796 27.7621 27.7288 27.9137 28.0929 27.9137C28.2509 27.9198 28.4079 27.8864 28.5512 27.8164C28.6944 27.7463 28.8197 27.6416 28.9167 27.5108V27.8446H29.4878V26.4748ZM27.3625 26.4748C27.3716 26.3129 27.4257 26.1573 27.5181 26.0272C27.6106 25.897 27.7373 25.7981 27.8827 25.7425C28.0281 25.6869 28.1859 25.6771 28.3365 25.7142C28.4872 25.7514 28.6242 25.8339 28.7307 25.9517C28.8371 26.0694 28.9084 26.2172 28.9358 26.3769C28.9631 26.5366 28.9453 26.7011 28.8845 26.8503C28.8237 26.9995 28.7226 27.1268 28.5937 27.2165C28.4648 27.3063 28.3136 27.3546 28.1588 27.3554C28.0501 27.3568 27.9423 27.3347 27.8421 27.2903C27.742 27.246 27.6516 27.1804 27.5768 27.0977C27.5021 27.015 27.4444 26.9169 27.4075 26.8097C27.3706 26.7026 27.3553 26.5885 27.3625 26.4748V26.4748ZM20.4705 25.036C20.1064 25.0413 19.7592 25.198 19.5053 25.4716C19.2515 25.7453 19.1117 26.1134 19.1168 26.495C19.1219 26.8766 19.2714 27.2404 19.5325 27.5065C19.7936 27.7725 20.1448 27.919 20.5089 27.9137C20.904 27.9349 21.2925 27.8016 21.599 27.5396L21.3244 27.0964C21.1076 27.2786 20.839 27.3799 20.5611 27.3842C20.3723 27.4012 20.1846 27.3404 20.038 27.2146C19.8913 27.0888 19.7973 26.9081 19.7758 26.7108H21.7253C21.7253 26.636 21.7253 26.5612 21.7253 26.4806C21.7253 25.6173 21.2146 25.0417 20.4787 25.0417L20.4705 25.036ZM20.4705 25.5712C20.556 25.5693 20.6409 25.5851 20.7206 25.6176C20.8003 25.6501 20.873 25.6988 20.9347 25.7608C20.9964 25.8228 21.0459 25.8969 21.0802 25.9789C21.1146 26.061 21.1332 26.1493 21.135 26.2388H19.7621C19.772 26.0541 19.8506 25.8808 19.9809 25.756C20.1113 25.6312 20.2831 25.5649 20.4595 25.5712H20.4705ZM34.779 26.4806V24H34.2298V25.4388C34.1328 25.3081 34.0076 25.2033 33.8643 25.1333C33.7211 25.0632 33.564 25.0299 33.4061 25.036C33.042 25.036 32.6928 25.1876 32.4353 25.4574C32.1778 25.7272 32.0332 26.0932 32.0332 26.4748C32.0332 26.8564 32.1778 27.2224 32.4353 27.4922C32.6928 27.7621 33.042 27.9137 33.4061 27.9137C33.564 27.9198 33.7211 27.8864 33.8643 27.8164C34.0076 27.7463 34.1328 27.6416 34.2298 27.5108V27.8446H34.779V26.4806ZM35.7318 27.4561C35.7675 27.4557 35.8029 27.4625 35.8361 27.4763C35.8677 27.4897 35.8965 27.5093 35.9213 27.5338C35.9454 27.5586 35.9649 27.5879 35.9789 27.6201C35.9928 27.6537 36 27.69 36 27.7266C36 27.7632 35.9928 27.7995 35.9789 27.8331C35.9649 27.8653 35.9454 27.8946 35.9213 27.9194C35.8965 27.944 35.8677 27.9635 35.8361 27.977C35.8033 27.9922 35.7677 28 35.7318 28C35.6797 27.9996 35.6289 27.9837 35.5851 27.9541C35.5414 27.9246 35.5065 27.8826 35.4847 27.8331C35.4709 27.7994 35.4638 27.7632 35.4638 27.7266C35.4638 27.69 35.4709 27.6538 35.4847 27.6201C35.4987 27.5879 35.5182 27.5586 35.5423 27.5338C35.5671 27.5093 35.5959 27.4897 35.6275 27.4763C35.6632 27.4613 35.7016 27.4545 35.74 27.4561H35.7318ZM35.7318 27.9424C35.7592 27.9426 35.7863 27.9367 35.8114 27.9252C35.835 27.9141 35.8565 27.8985 35.8746 27.8791C35.9089 27.8399 35.928 27.7885 35.928 27.7353C35.928 27.682 35.9089 27.6306 35.8746 27.5914C35.8565 27.5719 35.8351 27.5563 35.8114 27.5453C35.7863 27.5338 35.7592 27.528 35.7318 27.5281C35.7044 27.5282 35.6773 27.5341 35.6522 27.5453C35.6275 27.5559 35.6051 27.5716 35.5863 27.5914C35.5519 27.6306 35.5329 27.682 35.5329 27.7353C35.5329 27.7885 35.5519 27.8399 35.5863 27.8791C35.6051 27.8989 35.6275 27.9145 35.6522 27.9252C35.6799 27.9377 35.7099 27.9436 35.74 27.9424H35.7318ZM35.7483 27.6C35.7739 27.5987 35.7992 27.6068 35.8197 27.623C35.8281 27.6303 35.8347 27.6396 35.839 27.6501C35.8433 27.6606 35.8451 27.672 35.8444 27.6835C35.8448 27.693 35.8433 27.7026 35.84 27.7115C35.8366 27.7204 35.8316 27.7285 35.8252 27.7353C35.8092 27.7504 35.7889 27.7595 35.7675 27.7612L35.8471 27.8561H35.784L35.7098 27.7612H35.6851V27.8561H35.6329V27.6029L35.7483 27.6ZM35.6879 27.6489V27.718H35.7483C35.759 27.7213 35.7705 27.7213 35.7812 27.718C35.7831 27.714 35.7842 27.7095 35.7842 27.705C35.7842 27.7005 35.7831 27.6961 35.7812 27.6921C35.7831 27.6881 35.7842 27.6836 35.7842 27.6791C35.7842 27.6746 35.7831 27.6702 35.7812 27.6662C35.7705 27.6628 35.759 27.6628 35.7483 27.6662L35.6879 27.6489ZM32.6675 26.4806C32.6766 26.3186 32.7307 26.163 32.8231 26.0329C32.9155 25.9028 33.0422 25.8038 33.1876 25.7482C33.333 25.6926 33.4908 25.6828 33.6415 25.72C33.7921 25.7572 33.9291 25.8397 34.0356 25.9574C34.1421 26.0752 34.2134 26.223 34.2407 26.3826C34.268 26.5423 34.2502 26.7069 34.1894 26.8561C34.1287 27.0053 34.0276 27.1326 33.8986 27.2223C33.7697 27.312 33.6185 27.3603 33.4637 27.3612C33.355 27.3626 33.2472 27.3404 33.147 27.2961C33.0469 27.2517 32.9566 27.1861 32.8818 27.1034C32.807 27.0207 32.7493 26.9227 32.7125 26.8155C32.6756 26.7083 32.6602 26.5943 32.6675 26.4806V26.4806ZM13.3835 26.4806V25.105H12.8124V25.4388C12.7154 25.3081 12.5901 25.2033 12.4469 25.1333C12.3037 25.0632 12.1466 25.0299 11.9886 25.036C11.6245 25.036 11.2753 25.1876 11.0178 25.4574C10.7604 25.7272 10.6157 26.0932 10.6157 26.4748C10.6157 26.8564 10.7604 27.2224 11.0178 27.4922C11.2753 27.7621 11.6245 27.9137 11.9886 27.9137C12.1466 27.9198 12.3037 27.8864 12.4469 27.8164C12.5901 27.7463 12.7154 27.6416 12.8124 27.5108V27.8446H13.3835V26.4806ZM11.2583 26.4806C11.2674 26.3186 11.3215 26.163 11.4139 26.0329C11.5063 25.9028 11.633 25.8038 11.7784 25.7482C11.9238 25.6926 12.0816 25.6828 12.2323 25.72C12.3829 25.7572 12.5199 25.8397 12.6264 25.9574C12.7329 26.0752 12.8042 26.223 12.8315 26.3826C12.8588 26.5423 12.841 26.7069 12.7802 26.8561C12.7195 27.0053 12.6184 27.1326 12.4894 27.2223C12.3605 27.312 12.2093 27.3603 12.0545 27.3612C11.9454 27.3634 11.8369 27.3418 11.7361 27.2978C11.6353 27.2538 11.5443 27.1884 11.469 27.1056C11.3936 27.0228 11.3354 26.9245 11.2982 26.8169C11.261 26.7093 11.2455 26.5948 11.2528 26.4806H11.2583Z" fill="white" fill-opacity="0.65"/>
<path d="M16.2228 13.5013C16.2212 12.0624 16.5605 10.642 17.2149 9.34768C17.8693 8.05336 18.8217 6.91904 20 6.03063C18.5411 4.92921 16.789 4.24431 14.9441 4.05419C13.0991 3.86408 11.2357 4.17642 9.56681 4.95553C7.89791 5.73463 6.49085 6.94906 5.50644 8.46002C4.52204 9.97098 4 11.7175 4 13.5C4 15.2825 4.52204 17.029 5.50644 18.54C6.49085 20.0509 7.89791 21.2654 9.56681 22.0445C11.2357 22.8236 13.0991 23.1359 14.9441 22.9458C16.789 22.7557 18.5411 22.0708 20 20.9694C18.8221 20.0812 17.8699 18.9473 17.2155 17.6535C16.5611 16.3597 16.2217 14.9398 16.2228 13.5013V13.5013Z" fill="white" fill-opacity="0.65"/>
<path d="M36.0007 13.5013C36.0007 15.2837 35.4785 17.0302 34.494 18.541C33.5095 20.0518 32.1023 21.2661 30.4332 22.045C28.7642 22.8239 26.9007 23.136 25.0557 22.9457C23.2107 22.7553 21.4587 22.0701 20 20.9685C21.1774 20.0797 22.1293 18.9456 22.7838 17.6519C23.4384 16.3581 23.7784 14.9384 23.7784 13.5C23.7784 12.0616 23.4384 10.6419 22.7838 9.34815C22.1293 8.05439 21.1774 6.92032 20 6.03149C21.4587 4.92986 23.2107 4.2447 25.0557 4.05434C26.9007 3.86397 28.7642 4.17608 30.4332 4.95498C32.1023 5.73388 33.5095 6.94815 34.494 8.45899C35.4785 9.96983 36.0007 11.7163 36.0007 13.4987V13.5013Z" fill="white" fill-opacity="0.65"/>
<path d="M35.2376 19.3694V19.0633H35.3927V19H35V19.0633H35.1683V19.3694H35.2376ZM36 19.3694V19H35.8812L35.7426 19.2639L35.604 19H35.4983V19.3694H35.5842V19.0924L35.7129 19.3325H35.802L35.9307 19.0924V19.372L36 19.3694Z" fill="white" fill-opacity="0.65"/>
</g>
<defs>
<clipPath id="clip0_1_457">
<rect width="40" height="32" fill="white"/>
</clipPath>
</defs>
</svg>
