<svg width="13" height="16" viewBox="0 0 13 16" fill="none" xmlns="http://www.w3.org/2000/svg">
<path d="M2.16582 5.14669C2.16479 4.61231 2.26496 4.08313 2.46042 3.59029C2.65587 3.09746 2.94268 2.65094 3.30393 2.27704C3.66518 1.90314 4.09358 1.60941 4.56389 1.41316C5.03421 1.2169 5.53692 1.12209 6.04244 1.13431C6.54796 1.14653 7.04605 1.26553 7.50738 1.4843C7.96872 1.70307 8.38396 2.01718 8.72866 2.40815C9.07336 2.79912 9.34055 3.25902 9.51448 3.76079C9.68841 4.26255 9.76558 4.79602 9.74144 5.32978L10.8156 5.5289C10.8702 4.74851 10.7557 3.96524 10.4809 3.23859C10.2061 2.51195 9.77825 1.86104 9.22979 1.33531C8.68133 0.809585 8.02672 0.422862 7.31567 0.204521C6.60461 -0.0138209 5.85583 -0.0580386 5.12619 0.0752263C4.39654 0.208491 3.70523 0.515734 3.10477 0.973616C2.5043 1.4315 2.01048 2.02798 1.6608 2.71774C1.31112 3.40751 1.11479 4.17243 1.08672 4.95439C1.05865 5.73634 1.19957 6.51478 1.49879 7.23056C1.86942 7.12887 2.2507 7.07696 2.63362 7.07608C2.32579 6.48511 2.16484 5.82128 2.16582 5.14669ZM5.9558 2.28579C5.52501 2.28579 5.11187 2.46664 4.80726 2.78855C4.50265 3.11046 4.33152 3.54707 4.33152 4.00233V8.867C3.69914 8.64156 2.98554 8.50538 2.31093 8.5832C1.81498 8.64042 1.31904 8.81321 0.902141 9.17254C0.47983 9.5353 0.176632 10.0537 0.0163702 10.7289C-0.00250081 10.8081 -0.00509 10.8907 0.00877687 10.9711C0.0226437 11.0515 0.0526451 11.1278 0.0967616 11.1949C0.140878 11.2621 0.198086 11.3184 0.264536 11.3602C0.330986 11.402 0.405136 11.4283 0.481995 11.4372C3.28874 11.7668 4.72026 13.3826 5.41221 14.559C5.93197 15.4425 6.93902 16.1692 8.04894 15.9655L9.69162 15.6633C10.1592 15.5775 10.5972 15.3633 10.9617 15.0421C11.3263 14.7209 11.6045 14.3041 11.7685 13.8335L12.833 10.7781C12.9701 10.385 13.0238 9.96482 12.9903 9.54734C12.9569 9.12986 12.8371 8.72525 12.6394 8.36209C12.4417 7.99893 12.1709 7.68608 11.8463 7.44567C11.5216 7.20526 11.1509 7.04315 10.7604 6.97079L7.58007 6.38259V4.00233C7.58007 3.54707 7.40894 3.11046 7.10433 2.78855C6.79972 2.46664 6.38658 2.28579 5.9558 2.28579Z" fill="#007AFF"/>
</svg>
