<svg width="44" height="16" viewBox="0 0 44 16" fill="none" xmlns="http://www.w3.org/2000/svg">
<path d="M18.4609 16H16L17.5392 0H20L18.4609 16Z" fill="white" fill-opacity="0.65"/>
<path d="M32 0.659404C31.211 0.346017 29.9595 0 28.412 0C24.4615 0 21.6796 2.10895 21.6625 5.12412C21.6297 7.3487 23.6543 8.58429 25.1685 9.32603C26.7162 10.084 27.2423 10.5787 27.2423 11.2543C27.2266 12.2919 25.9917 12.7702 24.8399 12.7702C23.2428 12.7702 22.3871 12.5236 21.0866 11.9463L20.5598 11.6989L20 15.1757C20.9382 15.6036 22.6668 15.9834 24.4615 16C28.659 16 31.3916 13.9237 31.424 10.7105C31.44 8.94739 30.3709 7.59639 28.0661 6.49242C26.667 5.78374 25.8101 5.30589 25.8101 4.58078C25.8265 3.9216 26.5349 3.24643 28.1143 3.24643C29.4148 3.21336 30.3703 3.52631 31.0941 3.83947L31.456 4.00394L32 0.659404V0.659404Z" fill="white" fill-opacity="0.65"/>
<path d="M37.1741 10.3319C37.4495 9.41272 38.5092 5.85518 38.5092 5.85518C38.4953 5.88934 38.7841 4.91902 38.9492 4.32335L39.1829 5.70202C39.1829 5.70202 39.8162 9.53195 39.9537 10.3319C39.4311 10.3319 37.8346 10.3319 37.1741 10.3319ZM41.3021 0H38.7153C37.9176 0 37.3116 0.289128 36.9674 1.32755L32 16H35.509C35.509 16 36.0867 14.0252 36.2109 13.5999C36.5958 13.5999 40.0093 13.5999 40.5045 13.5999C40.6006 14.1616 40.9036 16 40.9036 16H44L41.3021 0V0Z" fill="white" fill-opacity="0.65"/>
<path d="M12.4016 0L9.06901 10.9221L8.70484 8.70693C8.0887 6.15097 6.15638 3.37398 4 1.99318L7.05257 16H10.6511L16 0H12.4016V0Z" fill="white" fill-opacity="0.65"/>
<path d="M5.35598 0H0.0542389L0 0.297329C4.13569 1.51848 6.87467 4.46201 8 8L6.84746 1.23696C6.65772 0.297121 6.0746 0.0310021 5.35598 0Z" fill="white" fill-opacity="0.65"/>
</svg>
