<?xml version="1.0" encoding="UTF-8"?>
<!DOCTYPE svg PUBLIC "-//W3C//DTD SVG 1.1//EN" "http://www.w3.org/Graphics/SVG/1.1/DTD/svg11.dtd">
<svg xmlns="http://www.w3.org/2000/svg" xmlns:xlink="http://www.w3.org/1999/xlink">
	<defs>
		<clipPath id="clip0_1_480">
			<path fill="#fff" d="M0 0h31v24H0z"/>
		</clipPath>
		<clipPath id="clip0_1_466">
			<path fill="#fff" d="M0 0h83v14H0z"/>
		</clipPath>
		<clipPath id="clip0_1_485">
			<path fill="#fff" d="M0 0h38v28H0z"/>
		</clipPath>
		<clipPath id="clip0_1_457">
			<path fill="#fff" d="M0 0h40v32H0z"/>
		</clipPath>
	</defs>
<symbol id="Diners_Club_Logo" viewBox="0 0 31 24">
	<g fill="#fff" fill-opacity=".65" clip-path="url(#clip0_1_480)">
		<path d="M15 5v13c2.923-1.005 4.995-3.533 5-6.5-.005-2.967-2.077-5.5-5-6.5z"/>
		<path d="M18.163 0h-5.78C5.59 0 0 4.948 0 12.105 0 18.652 5.59 24.033 12.383 24h5.776C24.873 24.033 31 18.652 31 12.105 31.005 4.948 24.874 0 18.163 0zm-5.75 22.962c-6.21 0-11.239-4.915-11.239-10.981C1.175 5.914 6.21.995 12.414.995c6.208 0 11.243 4.92 11.243 10.986 0 6.066-5.035 10.98-11.243 10.98z"/>
		<path d="M5 11.502C5.005 14.47 7.077 17 10 18V5c-2.923 1.005-4.995 3.535-5 6.502z"/>
	</g>
</symbol>
<symbol id="Discover_Card_logo" viewBox="0 0 83 14">
	<g fill="#fff" fill-opacity=".65" clip-path="url(#clip0_1_466)">
		<path d="M8.194 10c-.775.638-1.742.957-3.226.957h-.645V3.043h.645c1.548 0 2.451.255 3.226.957.838.702 1.29 1.851 1.29 3a3.721 3.721 0 01-1.29 3zM5.419 1H2v12h3.484c1.87 0 3.161-.447 4.322-1.404C11.161 10.446 12 8.723 12 7c0-3.51-2.71-6-6.58-6zM13 13h2V1h-2v12zM22.262 5.974c-1.524-.53-2.008-.928-2.008-1.591 0-.796.83-1.393 1.87-1.393.76 0 1.384.331 2.076.995l1.385-1.592C24.477 1.464 23.16 1 21.708 1c-2.285 0-4.085 1.526-4.085 3.582 0 1.724.83 2.586 3.185 3.449.969.331 1.523.53 1.73.73.485.33.762.795.762 1.26 0 .994-.83 1.79-2.008 1.79-1.246 0-2.215-.597-2.769-1.658L17 11.613C18.177 13.27 19.561 14 21.5 14c2.63 0 4.5-1.658 4.5-4.112 0-1.99-.83-2.852-3.738-3.914zM26 7.533C26 11.163 28.945 14 32.78 14c1.097 0 1.987-.198 3.151-.726v-2.837c-1.027.99-1.917 1.385-3.013 1.385-2.534 0-4.315-1.781-4.315-4.289 0-2.376 1.85-4.29 4.246-4.29 1.233 0 2.124.397 3.151 1.386V1.792C34.904 1.264 34.014 1 32.918 1 29.014 1.066 26 3.97 26 7.533zM54.967 9.487L51.652 1H49l5.304 13h1.326L61 1h-2.652l-3.381 8.487zM62 13h7v-2.043h-4.51V7.702h4.375V5.723H64.49v-2.68H69V1h-7v12zM73.13 6.553h-.717V2.915h.717c1.5 0 2.283.638 2.283 1.787 0 1.15-.783 1.851-2.283 1.851zm4.761-1.979C77.891 2.34 76.326 1 73.521 1H70v12h2.413V8.149h.326L76.065 13H79l-3.848-5.043c1.761-.383 2.74-1.595 2.74-3.383zM79.286 1.412l-.072-.236h.072c.143 0 .214.06.214.118 0 .118-.071.118-.214.118zm.5-.118c0-.176-.143-.294-.429-.294H79v1h.286v-.412l.357.353H80l-.357-.412s.143-.117.143-.235z"/>
		<path d="M79 2.857c-.429 0-.786-.357-.786-.857s.357-.857.786-.857c.429 0 .786.357.786.857.071.5-.357.857-.786.857zM79 1c-.571 0-1 .429-1 1s.429 1 1 1 1-.429 1-1-.429-1-1-1zM36 7.5C36 3.925 38.925 1 42.5 1S49 3.925 49 7.5 46.075 14 42.5 14 36 11.075 36 7.5z"/>
	</g>
</symbol>
<symbol id="JCB_logo" viewBox="0 0 38 28">
	<g fill="#fff" fill-opacity=".65" clip-path="url(#clip0_1_485)">
		<path d="M30 18h2.71c.077 0 .258-.02.335-.02.516-.084.955-.46.955-.98 0-.5-.439-.875-.955-.98-.077-.02-.232-.02-.335-.02H30v2z"/>
		<path d="M32.89 2c-2.672 0-4.863 1.93-4.863 4.337v4.504h6.868c.16 0 .348 0 .481.024 1.55.072 2.7.787 2.7 2.026 0 .977-.775 1.811-2.218 1.978v.048c1.576.095 2.779.881 2.779 2.097 0 1.31-1.336 2.168-3.1 2.168H28V28h7.136C37.808 28 40 26.07 40 23.663V2h-7.11z"/>
		<path d="M34 13c0-.546-.479-.91-1.042-.977-.057 0-.197-.023-.282-.023H30v2h2.676c.085 0 .254 0 .282-.023C33.52 13.91 34 13.546 34 13zM6.89 2C4.219 2 2.028 3.932 2.028 6.341v10.71c1.363.597 2.78.978 4.196.978 1.683 0 2.592-.906 2.592-2.146v-5.057h4.17v5.033c0 1.956-1.364 3.554-5.987 3.554-2.806 0-4.998-.549-4.998-.549V28h7.136C11.809 28 14 26.068 14 23.659V2H6.89zM20.864 2C18.192 2 16 3.929 16 6.333V12c1.23-.929 3.367-1.524 6.815-1.381 1.844.072 3.822.524 3.822.524v1.833c-.989-.452-2.165-.857-3.688-.952-2.62-.167-4.196.976-4.196 2.976 0 2.024 1.577 3.167 4.196 2.976 1.523-.095 2.7-.524 3.688-.952v1.833s-1.951.453-3.822.524C19.367 19.524 17.23 18.929 16 18v10h7.136C25.808 28 28 26.071 28 23.667V2h-7.136z"/>
	</g>
</symbol>
<symbol id="logo" viewBox="0 0 94 40">
	<path fill="#000" fill-opacity=".75" fill-rule="evenodd" d="M15.047 37.787c-.179 1.319.134 1.143 1.25 1.187 1.966.044 5.137.044 5.45-.088.358-.132.447-.571.58-1.143l1.341-6.195c.268-1.142 0-1.362 1.25-1.45h4.914c1.027 0 1.206.132 1.43 1.099.223 1.01.804 4.525 1.16 6.415.269 1.23.09 1.362 1.475 1.362H38.9c1.474 0 1.117-.044.893-1.626l-7.102-35.59C32.289-.176 32.468.044 30.725 0H24.83c-1.652 0-1.697-.044-2.144 1.977l-7.638 35.81zM27.375 7.514l2.68 15.686c.18.966.18 1.23-.938 1.186h-3.841c-.715 0-.983-.044-.715-1.274l2.814-15.598z" clip-rule="evenodd"/>
	<path fill="#007AFF" fill-rule="evenodd" d="M72.815 17.894c0-.398 0-.575.398-.575h2.477c.398.044.353.133.353.575v15.872c0 .53-.177.663-.53.663H73.39c-.62 0-.575-.22-.575-.663v-5.57c0-.708.044-.93-.929-.93H70.03c-.796 0-.796.222-.752 1.15l.044 4.82c0 .928-.088 1.149-.885 1.149h-1.68c-.796-.044-.752-.221-.752-1.061v-15.43c0-.354.044-.53.62-.53h1.99c.574 0 .574.043.574.618 0 1.901 0 3.847.044 5.704 0 .398.133.619.398.619h2.61c.31 0 .442-.133.53-.531l.045-5.88zm5.395.53c0-.663 0-.884.443-.884l3.67-.044c2.168.044 3.627.752 4.91 2.564 1.37 1.901 1.415 6.057 1.017 8.356-.265 1.415-.663 2.609-1.371 3.626-.929 1.326-2.344 2.255-4.467 2.476-1.327.176-2.919.176-3.803 0-.354-.089-.221.132-.398-.266V18.424zm15.745 18.26c0-3.846.045-13.617.045-19.1 0-5.659.177-5.526-6.502-5.526-3.228 0-22.423-.177-24.723.088-.973.133-1.857 1.105-1.901 2.078l-4.777 24.184c-.265 1.504-.133 1.548 2.3 1.548 10.614 0 21.229.044 31.799.044 2.786 0 3.76-.354 3.76-3.316z" clip-rule="evenodd"/>
	<path fill="#000" fill-opacity=".75" fill-rule="evenodd" d="M43.344 38.642c.177 1.304.265 1.394 2.036 1.35 1.904-.045 3.808-.045 5.712-.045.93.044 1.24-.585 1.417-1.485l7.26-36.707c.267-1.484.532-1.754-.619-1.754h-5.446c-1.195 0-1.062.36-1.328 1.71L47.993 30.41l-4.34-28.97c-.22-1.529-.22-1.439-1.814-1.439h-4.694c-1.416 0-1.24-.045-.93 1.62l7.129 37.021zM14.854 29.9c.223-2.186.089-4.418.134-6.515.044-7.364-.045-15.04-.045-22.403 0-.893.045-.937-.938-.982H8.02c-.67.045-.714.312-.714.982v25.661c0 1.562-.045 3.882-.849 5.221-.893 1.473-2.5 1.651-4.823 1.294-1.295-.178-1.117.09-1.25 1.428-.135 1.34-.224 3.035-.313 3.437-.224 1.74.044 1.606 1.34 1.785 3.215.446 6.833.223 9.468-1.83 2.59-2.008 3.707-5.087 3.975-8.078z" clip-rule="evenodd"/>
	<path fill="#007AFF" fill-rule="evenodd" d="M81 20.71V31.1c0 .799.15 1.243 1.65.577 1.201-.533 1.801-1.998 2.101-3.596.3-1.51.3-3.108.15-4.04-.15-1.554-.9-3.996-3.1-4.04-.751.044-.801.044-.801.71z" clip-rule="evenodd"/>
</symbol>
<symbol id="master_card" viewBox="0 0 40 32">
	<g fill="#fff" fill-opacity=".65" clip-path="url(#clip0_1_457)">
		<path d="M10.163 27.856V26.13a1.07 1.07 0 00-.06-.427 1.032 1.032 0 00-.22-.364.974.974 0 00-.346-.236.936.936 0 00-.407-.066.976.976 0 00-.525.112c-.162.086-.3.217-.397.377a.985.985 0 00-.37-.37.928.928 0 00-.498-.119.835.835 0 00-.436.097.883.883 0 00-.333.312v-.34H6v2.751h.577v-1.514a.674.674 0 01.157-.524.59.59 0 01.485-.207c.38 0 .571.26.571.726v1.53h.577v-1.525a.677.677 0 01.158-.522.593.593 0 01.484-.208c.39 0 .577.258.577.725v1.53l.577-.01zm8.53-2.751h-.938v-.835h-.577v.835h-.521v.547h.532v1.266c0 .639.236 1.019.912 1.019.252 0 .5-.073.714-.213l-.165-.512c-.153.095-.327.149-.505.155-.275 0-.38-.184-.38-.46v-1.255h.934l-.005-.547zm4.872-.069a.746.746 0 00-.399.102.794.794 0 00-.293.3v-.333h-.566v2.751h.572v-1.542c0-.455.186-.708.549-.708a.893.893 0 01.357.069l.175-.576a1.171 1.171 0 00-.406-.075l.011.012zm-7.364.288a1.893 1.893 0 00-1.071-.288c-.665 0-1.099.334-1.099.88 0 .45.32.726.907.812l.274.04c.313.046.462.133.462.288 0 .213-.21.334-.599.334a1.354 1.354 0 01-.873-.288l-.275.466c.333.244.731.369 1.137.357.758 0 1.197-.374 1.197-.898 0-.523-.346-.736-.917-.823l-.274-.04c-.248-.035-.445-.086-.445-.27 0-.185.186-.323.5-.323.289.004.572.085.823.236l.253-.483zm15.297-.288a.746.746 0 00-.4.102.793.793 0 00-.292.3v-.333h-.566v2.751h.571v-1.542c0-.455.187-.708.55-.708a.893.893 0 01.356.069l.176-.576a1.171 1.171 0 00-.406-.075l.01.012zm-7.36 1.439c-.006.193.026.386.094.566.069.18.172.342.304.477.132.136.289.241.462.31.172.067.357.097.541.086.343.018.68-.1.945-.328l-.275-.484a1.12 1.12 0 01-.686.248.829.829 0 01-.552-.282.907.907 0 01-.223-.599c0-.222.08-.436.223-.599a.829.829 0 01.552-.282c.248.003.489.09.686.248l.275-.483a1.333 1.333 0 00-.945-.329 1.27 1.27 0 00-.541.087c-.173.068-.33.173-.462.309a1.396 1.396 0 00-.304.478c-.068.18-.1.372-.093.565v.012zm5.35 0v-1.37h-.571v.334a1.007 1.007 0 00-.366-.306.958.958 0 00-.458-.097c-.364 0-.713.152-.97.421-.258.27-.403.636-.403 1.018 0 .381.145.747.402 1.017.258.27.607.422.97.422a.959.959 0 00.46-.098c.142-.07.268-.174.365-.305v.334h.57v-1.37zm-2.125 0a.857.857 0 01.155-.448c.093-.13.22-.229.365-.285a.76.76 0 01.454-.028c.15.037.287.12.394.238a.869.869 0 01.154.899.824.824 0 01-.291.366.767.767 0 01-1.017-.12.835.835 0 01-.215-.622zm-6.892-1.439a1.344 1.344 0 00-.966.436 1.477 1.477 0 00-.388 1.023c.005.382.154.745.415 1.011.262.267.613.413.977.408.395.02.784-.112 1.09-.374l-.275-.444a1.215 1.215 0 01-.763.288.705.705 0 01-.523-.17.773.773 0 01-.262-.503h1.95v-.23c0-.864-.511-1.44-1.247-1.44l-.008-.005zm0 .535a.625.625 0 01.464.19.682.682 0 01.2.478h-1.373a.722.722 0 01.219-.483.658.658 0 01.478-.185h.012zm14.308.91V24h-.55v1.439a1.006 1.006 0 00-.365-.306.957.957 0 00-.458-.097c-.364 0-.713.152-.97.421-.258.27-.403.636-.403 1.018 0 .381.145.747.402 1.017.258.27.607.422.971.422a.958.958 0 00.458-.098c.144-.07.269-.174.366-.305v.334h.549V26.48zm.953.975a.264.264 0 01.247.164.279.279 0 01-.058.3.274.274 0 01-.19.08.265.265 0 01-.146-.046.284.284 0 01-.1-.12.281.281 0 01.057-.3.262.262 0 01.198-.078h-.008zm0 .486a.188.188 0 00.143-.063.219.219 0 000-.288.19.19 0 00-.222-.046.2.2 0 00-.067.046.218.218 0 000 .288.2.2 0 00.154.063h-.008zm.016-.342a.106.106 0 01.072.023.072.072 0 01.019.027c.004.01.006.022.005.034a.072.072 0 01-.019.051.095.095 0 01-.058.026l.08.095h-.063l-.074-.095h-.025v.095h-.052v-.253l.115-.003zm-.06.049v.069h.06c.011.003.023.003.033 0a.03.03 0 000-.026.03.03 0 000-.026.054.054 0 00-.033 0l-.06-.017zm-3.02-1.168a.857.857 0 01.155-.448c.093-.13.22-.23.365-.285a.76.76 0 01.453-.028c.151.037.288.12.395.237a.869.869 0 01.154.899.822.822 0 01-.291.366.769.769 0 01-1.017-.119.86.86 0 01-.214-.623zm-19.285 0v-1.376h-.57v.334a1.007 1.007 0 00-.366-.306.957.957 0 00-.458-.097c-.365 0-.714.152-.971.421-.258.27-.402.636-.402 1.018 0 .381.144.747.402 1.017.257.27.606.422.97.422a.958.958 0 00.459-.098c.143-.07.268-.174.365-.305v.334h.572V26.48zm-2.125 0a.857.857 0 01.156-.448c.092-.13.219-.23.364-.285a.76.76 0 01.454-.028c.15.037.288.12.394.237a.869.869 0 01.154.899.822.822 0 01-.29.366.769.769 0 01-.435.14.757.757 0 01-.586-.256.862.862 0 01-.216-.625h.005zM16.223 13.501a9.177 9.177 0 01.992-4.153A9.567 9.567 0 0120 6.03a10.115 10.115 0 00-5.056-1.977 10.245 10.245 0 00-5.377.902 9.765 9.765 0 00-4.06 3.504A9.226 9.226 0 004 13.5c0 1.783.522 3.529 1.506 5.04a9.765 9.765 0 004.06 3.505 10.245 10.245 0 005.378.9A10.114 10.114 0 0020 20.97a9.568 9.568 0 01-2.785-3.316 9.178 9.178 0 01-.992-4.152zM36 13.501a9.224 9.224 0 01-1.506 5.04 9.764 9.764 0 01-4.06 3.504 10.246 10.246 0 01-5.378.9A10.115 10.115 0 0120 20.969a9.581 9.581 0 002.784-3.316 9.19 9.19 0 00.994-4.152 9.19 9.19 0 00-.994-4.152A9.581 9.581 0 0020 6.031a10.114 10.114 0 015.056-1.977c1.845-.19 3.708.122 5.377.901a9.763 9.763 0 014.061 3.504 9.224 9.224 0 011.507 5.04v.002zM35.238 19.37v-.307h.155V19H35v.063h.168v.306h.07zm.762 0V19h-.119l-.138.264-.139-.264h-.106v.37h.086v-.278l.129.24h.089l.129-.24v.28l.069-.003z"/>
	</g>
</symbol>
<symbol id="tap" viewBox="0 0 13 16">
	<path fill="#007AFF" d="M2.166 5.147c-.001-.535.099-1.064.294-1.557.196-.493.483-.94.844-1.313.361-.374.79-.668 1.26-.864a3.61 3.61 0 012.943.071c.462.22.877.533 1.222.924.344.391.612.851.785 1.353.174.502.252 1.035.227 1.569l1.075.199a5.414 5.414 0 00-.335-2.29A5.164 5.164 0 009.23 1.335 4.808 4.808 0 007.316.205a4.62 4.62 0 00-2.19-.13c-.73.133-1.42.44-2.021.899A5.075 5.075 0 001.66 2.718a5.405 5.405 0 00-.162 4.513c.37-.102.752-.154 1.135-.155a4.168 4.168 0 01-.468-1.93zm3.79-2.861c-.431 0-.844.18-1.149.503a1.767 1.767 0 00-.475 1.213v4.865c-.633-.225-1.346-.362-2.021-.284-.496.057-.992.23-1.409.59-.422.362-.725.88-.886 1.556a.604.604 0 00.08.466.554.554 0 00.169.165.52.52 0 00.217.077c2.807.33 4.238 1.946 4.93 3.122.52.884 1.527 1.61 2.637 1.407l1.643-.303c.467-.085.905-.3 1.27-.62.364-.322.643-.739.806-1.21l1.065-3.055a3.01 3.01 0 00-.194-2.416 2.81 2.81 0 00-.793-.916 2.63 2.63 0 00-1.086-.475l-3.18-.588v-2.38c0-.456-.171-.893-.476-1.214a1.581 1.581 0 00-1.148-.503z"/>
</symbol>
<symbol id="visa" viewBox="0 0 44 16">
	<path fill="#fff" fill-opacity=".65" d="M18.46 16H16l1.54-16H20l-1.54 16zM32 .66A9.848 9.848 0 0028.412 0c-3.95 0-6.732 2.109-6.75 5.124-.032 2.225 1.992 3.46 3.507 4.202 1.547.758 2.073 1.253 2.073 1.928-.015 1.038-1.25 1.516-2.402 1.516-1.597 0-2.453-.246-3.753-.824l-.527-.247-.56 3.477c.938.428 2.667.807 4.462.824 4.197 0 6.93-2.076 6.962-5.29.016-1.763-1.053-3.114-3.358-4.218-1.399-.708-2.256-1.186-2.256-1.911.017-.66.725-1.335 2.304-1.335a6.79 6.79 0 012.98.593l.362.165L32 .659zM37.174 10.332c.276-.92 1.335-4.477 1.335-4.477-.014.034.275-.936.44-1.532l.234 1.379s.633 3.83.77 4.63h-2.779zM41.302 0h-2.587c-.797 0-1.403.29-1.748 1.328L32 16h3.509l.702-2.4h4.294c.096.562.399 2.4.399 2.4H44L41.302 0zM12.402 0L9.069 10.922l-.364-2.215C8.089 6.15 6.156 3.374 4 1.993L7.053 16h3.598L16 0h-3.598z"/>
	<path fill="#fff" fill-opacity=".65" d="M5.356 0H.054L0 .297C4.136 1.518 6.875 4.462 8 8L6.847 1.237C6.657.297 6.075.031 5.356 0z"/>
</symbol>
</svg>